<svg xmlns="http://www.w3.org/2000/svg" version="1.1" xmlns:xlink="http://www.w3.org/1999/xlink" xmlns:svgjs="http://svgjs.dev/svgjs" width="1000" height="133" viewBox="0 0 1000 133"><g transform="matrix(1,0,0,1,-0.6060606060606233,0.26625201496176487)"><svg viewBox="0 0 396 53" data-background-color="#ffffff" preserveAspectRatio="xMidYMid meet" height="133" width="1000" xmlns="http://www.w3.org/2000/svg" xmlns:xlink="http://www.w3.org/1999/xlink"><g id="tight-bounds" transform="matrix(1,0,0,1,0.2400000000000091,-0.10610042701483735)"><svg viewBox="0 0 395.52 53.21220085402967" height="53.21220085402967" width="395.52"><g><svg viewBox="0 0 469.47066956417905 63.161325758305246" height="53.21220085402967" width="395.52"><g transform="matrix(1,0,0,1,0,8.729242561386616)"><svg viewBox="0 0 395.52 45.70284063553201" height="45.70284063553201" width="395.52"><g id="textblocktransform"><svg viewBox="0 0 395.52 45.70284063553201" height="45.70284063553201" width="395.52" id="textblock"><g><svg viewBox="0 0 395.52 45.70284063553201" height="45.70284063553201" width="395.52"><g transform="matrix(1,0,0,1,0,0)"><svg width="395.52" viewBox="3.75 -35.5 311.5299987792969 36" height="45.70284063553201" data-palette-color="#4790fc"><path d="M30.3-35L30.3-35Q31.5-35 32.25-34.2 33-33.4 33-32.2L33-32.2 33-3.05Q33-1.75 32.13-0.88 31.25 0 29.95 0L29.95 0Q29.3 0 28.63-0.23 27.95-0.45 27.6-0.85L27.6-0.85 7.95-25.8 9.25-26.6 9.25-2.8Q9.25-1.6 8.47-0.8 7.7 0 6.45 0L6.45 0Q5.25 0 4.5-0.8 3.75-1.6 3.75-2.8L3.75-2.8 3.75-31.95Q3.75-33.25 4.63-34.13 5.5-35 6.8-35L6.8-35Q7.5-35 8.25-34.73 9-34.45 9.35-33.9L9.35-33.9 28.4-9.6 27.55-9 27.55-32.2Q27.55-33.4 28.3-34.2 29.05-35 30.3-35ZM43.55-35L43.55-35 60.3-35Q61.6-35 62.47-34.18 63.35-33.35 63.35-32.05L63.35-32.05Q63.35-30.8 62.47-30.03 61.6-29.25 60.3-29.25L60.3-29.25 46.3-29.25 46.75-30.1 46.75-20.35 46.35-20.75 58.05-20.75Q59.35-20.75 60.22-19.93 61.1-19.1 61.1-17.8L61.1-17.8Q61.1-16.55 60.22-15.78 59.35-15 58.05-15L58.05-15 46.5-15 46.75-15.4 46.75-5.3 46.35-5.75 60.3-5.75Q61.6-5.75 62.47-4.88 63.35-4 63.35-2.85L63.35-2.85Q63.35-1.6 62.47-0.8 61.6 0 60.3 0L60.3 0 43.55 0Q42.25 0 41.37-0.88 40.5-1.75 40.5-3.05L40.5-3.05 40.5-31.95Q40.5-33.25 41.37-34.13 42.25-35 43.55-35ZM93.05-35.05L93.05-35.05Q94.19-35.05 95.02-34.15 95.84-33.25 95.84-32.25L95.84-32.25Q95.84-31.3 95.19-30.45L95.19-30.45 85.14-17.2 81.75-21.85 90.59-33.6Q91.64-35.05 93.05-35.05ZM70.75-35.15L70.75-35.15Q72.19-35.15 73.19-33.85L73.19-33.85 95.19-4.6Q95.8-3.8 95.8-2.75L95.8-2.75Q95.8-1.35 94.8-0.55 93.8 0.25 92.8 0.25L92.8 0.25Q91.34 0.25 90.34-1.05L90.34-1.05 68.34-30.3Q67.69-31.1 67.69-32.1L67.69-32.1Q67.69-33.4 68.67-34.27 69.64-35.15 70.75-35.15ZM70.3 0.25L70.3 0.25Q69.19 0.25 68.39-0.58 67.59-1.4 67.59-2.4L67.59-2.4Q67.59-3.5 68.34-4.45L68.34-4.45 78.5-18.2 81.8-13.35 72.8-1.15Q71.8 0.25 70.3 0.25ZM112.34-12.35L103.64-12.35Q102.34-12.35 101.47-13.2 100.59-14.05 100.59-15.35L100.59-15.35Q100.59-16.65 101.47-17.48 102.34-18.3 103.64-18.3L103.64-18.3 112.34-18.3Q113.64-18.3 114.52-17.43 115.39-16.55 115.39-15.25L115.39-15.25Q115.39-14 114.52-13.18 113.64-12.35 112.34-12.35L112.34-12.35ZM146.14-33.3L146.14-33.3Q147.44-32.65 147.66-31.25 147.89-29.85 146.94-28.7L146.94-28.7Q146.29-27.8 145.26-27.7 144.24-27.6 143.19-28.1L143.19-28.1Q141.99-28.65 140.66-28.95 139.34-29.25 137.89-29.25L137.89-29.25Q135.19-29.25 133.06-28.4 130.94-27.55 129.44-25.98 127.94-24.4 127.17-22.25 126.39-20.1 126.39-17.5L126.39-17.5Q126.39-14.45 127.27-12.2 128.14-9.95 129.69-8.45 131.24-6.95 133.34-6.23 135.44-5.5 137.89-5.5L137.89-5.5Q139.24-5.5 140.59-5.75 141.94-6 143.19-6.65L143.19-6.65Q144.24-7.15 145.26-7 146.29-6.85 146.99-5.95L146.99-5.95Q147.99-4.7 147.72-3.38 147.44-2.05 146.19-1.45L146.19-1.45Q144.89-0.8 143.51-0.38 142.14 0.05 140.74 0.28 139.34 0.5 137.89 0.5L137.89 0.5Q134.29 0.5 131.06-0.65 127.84-1.8 125.31-4.05 122.79-6.3 121.34-9.68 119.89-13.05 119.89-17.5L119.89-17.5Q119.89-21.35 121.22-24.6 122.54-27.85 124.97-30.23 127.39-32.6 130.69-33.93 133.99-35.25 137.89-35.25L137.89-35.25Q140.09-35.25 142.19-34.75 144.29-34.25 146.14-33.3ZM156.19-35L156.19-35Q157.39-35 158.31-34.13 159.24-33.25 159.24-31.95L159.24-31.95 159.24-3.05Q159.24-1.75 158.29-0.88 157.34 0 156.09 0L156.09 0Q154.69 0 153.84-0.88 152.99-1.75 152.99-3.05L152.99-3.05 152.99-31.95Q152.99-33.25 153.89-34.13 154.79-35 156.19-35ZM178.34-35L178.34-35Q179.74-35 180.59-34.13 181.44-33.25 181.44-31.95L181.44-31.95 181.44-3.05Q181.44-1.75 180.56-0.88 179.69 0 178.24 0L178.24 0Q177.04 0 176.11-0.88 175.19-1.75 175.19-3.05L175.19-3.05 175.19-31.95Q175.19-33.25 176.14-34.13 177.09-35 178.34-35ZM156.04-14.7L156.04-20.45 178.34-20.45 178.34-14.7 156.04-14.7ZM200.34-26.85L201.78-27.15 190.99-1.75Q190.63-0.8 189.91-0.28 189.19 0.25 188.34 0.25L188.34 0.25Q186.99 0.25 186.34-0.5 185.69-1.25 185.69-2.35L185.69-2.35Q185.69-2.8 185.84-3.3L185.84-3.3 198.28-33.2Q198.69-34.2 199.51-34.75 200.34-35.3 201.28-35.2L201.28-35.2Q202.19-35.2 202.96-34.68 203.74-34.15 204.09-33.2L204.09-33.2 216.38-3.9Q216.63-3.25 216.63-2.7L216.63-2.7Q216.63-1.35 215.76-0.55 214.88 0.25 213.84 0.25L213.84 0.25Q212.94 0.25 212.21-0.3 211.49-0.85 211.09-1.8L211.09-1.8 200.34-26.85ZM209.74-7.85L192.53-7.85 195.28-13.6 208.78-13.6 209.74-7.85ZM247.43-35L247.43-35Q248.63-35 249.38-34.2 250.13-33.4 250.13-32.2L250.13-32.2 250.13-3.05Q250.13-1.75 249.26-0.88 248.38 0 247.08 0L247.08 0Q246.43 0 245.76-0.23 245.08-0.45 244.73-0.85L244.73-0.85 225.08-25.8 226.38-26.6 226.38-2.8Q226.38-1.6 225.61-0.8 224.83 0 223.58 0L223.58 0Q222.38 0 221.63-0.8 220.88-1.6 220.88-2.8L220.88-2.8 220.88-31.95Q220.88-33.25 221.76-34.13 222.63-35 223.93-35L223.93-35Q224.63-35 225.38-34.73 226.13-34.45 226.48-33.9L226.48-33.9 245.53-9.6 244.68-9 244.68-32.2Q244.68-33.4 245.43-34.2 246.18-35 247.43-35ZM274.13 0.5L274.13 0.5Q270.33 0.5 267.03-0.9 263.73-2.3 261.23-4.78 258.73-7.25 257.31-10.5 255.88-13.75 255.88-17.5L255.88-17.5Q255.88-21.25 257.31-24.5 258.73-27.75 261.23-30.23 263.73-32.7 267.03-34.1 270.33-35.5 274.13-35.5L274.13-35.5Q276.48-35.5 278.68-35 280.88-34.5 282.73-33.5L282.73-33.5Q283.48-33.1 283.86-32.43 284.23-31.75 284.23-31.05L284.23-31.05Q284.23-29.85 283.43-28.9 282.63-27.95 281.38-27.95L281.38-27.95Q280.98-27.95 280.56-28.05 280.13-28.15 279.73-28.35L279.73-28.35Q278.48-28.9 277.08-29.2 275.68-29.5 274.13-29.5L274.13-29.5Q270.88-29.5 268.2-27.88 265.53-26.25 263.95-23.53 262.38-20.8 262.38-17.5L262.38-17.5Q262.38-14.25 263.95-11.5 265.53-8.75 268.2-7.13 270.88-5.5 274.13-5.5L274.13-5.5Q275.63-5.5 277.43-5.8 279.23-6.1 280.38-6.6L280.38-6.6 279.93-5.1 279.93-13.65 280.78-12.9 275.23-12.9Q273.93-12.9 273.06-13.75 272.18-14.6 272.18-15.9L272.18-15.9Q272.18-17.2 273.06-18.05 273.93-18.9 275.23-18.9L275.23-18.9 283.43-18.9Q284.73-18.9 285.58-18.03 286.43-17.15 286.43-15.85L286.43-15.85 286.43-5.25Q286.43-4.25 285.95-3.6 285.48-2.95 284.88-2.55L284.88-2.55Q282.58-1.15 279.86-0.33 277.13 0.5 274.13 0.5ZM295.48-35L295.48-35 312.23-35Q313.53-35 314.4-34.18 315.28-33.35 315.28-32.05L315.28-32.05Q315.28-30.8 314.4-30.03 313.53-29.25 312.23-29.25L312.23-29.25 298.23-29.25 298.68-30.1 298.68-20.35 298.28-20.75 309.98-20.75Q311.28-20.75 312.15-19.93 313.03-19.1 313.03-17.8L313.03-17.8Q313.03-16.55 312.15-15.78 311.28-15 309.98-15L309.98-15 298.43-15 298.68-15.4 298.68-5.3 298.28-5.75 312.23-5.75Q313.53-5.75 314.4-4.88 315.28-4 315.28-2.85L315.28-2.85Q315.28-1.6 314.4-0.8 313.53 0 312.23 0L312.23 0 295.48 0Q294.18 0 293.3-0.88 292.43-1.75 292.43-3.05L292.43-3.05 292.43-31.95Q292.43-33.25 293.3-34.13 294.18-35 295.48-35Z" opacity="1" transform="matrix(1,0,0,1,0,0)" fill="#4790fc" class="wordmark-text-0" data-fill-palette-color="primary" id="text-0"></path></svg></g></svg></g></svg></g></svg></g><g transform="matrix(1,0,0,1,406.3093438058738,0)"><svg viewBox="0 0 63.161325758305246 63.161325758305246" height="63.161325758305246" width="63.161325758305246"><g data-palette-color="#ed2326"><rect width="17.2640957072701" height="63.161325758305246" fill="#ed2326" stroke="transparent" data-fill-palette-color="accent" x="0" fill-opacity="1"></rect><rect width="17.2640957072701" height="63.161325758305246" fill="#ed2326" stroke="transparent" data-fill-palette-color="accent" x="21.053775252768418" fill-opacity="0.75"></rect><rect width="17.2640957072701" height="63.161325758305246" fill="#ed2326" stroke="transparent" data-fill-palette-color="accent" x="42.107550505536835" fill-opacity="0.5"></rect></g></svg></g></svg></g><defs></defs></svg><rect width="395.52" height="53.21220085402967" fill="none" stroke="none" visibility="hidden"></rect></g></svg></g></svg>